<svg width="37" height="36" viewBox="0 0 37 36" fill="none" xmlns="http://www.w3.org/2000/svg">
<g clip-path="url(#clip0_13_4025)">
<path fill-rule="evenodd" clip-rule="evenodd" d="M12.686 0C10.5988 0 8.59723 0.806704 7.1214 2.24265L0 9.17153V12.3431C0 14.5839 0.989232 16.5998 2.56596 18C0.989232 19.4002 0 21.4161 0 23.6569V26.8285L7.1214 33.7574C8.59723 35.1933 10.5988 36 12.686 36C14.989 36 17.0609 35.0375 18.5 33.5034C19.9391 35.0375 22.011 36 24.314 36C26.4012 36 28.4028 35.1933 29.8786 33.7574L37 26.8285V23.6569C37 21.4161 36.0108 19.4002 34.4341 18C36.0108 16.5998 37 14.5839 37 12.3431V9.17153L29.8786 2.24265C28.4028 0.806704 26.4012 0 24.314 0C22.011 0 19.9391 0.962493 18.5 2.49661C17.0609 0.962493 14.989 0 12.686 0ZM23.8269 18C23.7382 17.9212 23.6511 17.8403 23.5659 17.7574L18.5 12.8284L13.4341 17.7574C13.3489 17.8403 13.2618 17.9212 13.1731 18C13.2618 18.0787 13.3489 18.1597 13.4341 18.2426L18.5 23.1716L23.5659 18.2426C23.6511 18.1597 23.7382 18.0787 23.8269 18ZM20.5555 26.8285V28.3432C20.5555 30.3628 22.2383 32 24.314 32C25.3108 32 26.2668 31.6147 26.9716 30.9289L32.8889 25.1716V23.6569C32.8889 21.6373 31.2062 20 29.1305 20C28.1337 20 27.1777 20.3853 26.4729 21.0711L20.5555 26.8285ZM16.4445 26.8285L10.5271 21.0711C9.8223 20.3853 8.86635 20 7.86955 20C5.79382 20 4.11111 21.6373 4.11111 23.6569V25.1716L10.0284 30.9289C10.7332 31.6147 11.6892 32 12.686 32C14.7617 32 16.4445 30.3628 16.4445 28.3432V26.8285ZM16.4445 7.65686V9.17153L10.5271 14.9289C9.8223 15.6147 8.86635 16 7.86955 16C5.79382 16 4.11111 14.3627 4.11111 12.3431V10.8284L10.0284 5.07107C10.7332 4.38528 11.6892 4 12.686 4C14.7617 4 16.4445 5.63723 16.4445 7.65686ZM26.4729 14.9289L20.5555 9.17153V7.65686C20.5555 5.63723 22.2383 4 24.314 4C25.3108 4 26.2668 4.38528 26.9716 5.07107L32.8889 10.8284V12.3431C32.8889 14.3627 31.2062 16 29.1305 16C28.1337 16 27.1777 15.6147 26.4729 14.9289Z" fill="#FF6358"/>
</g>
<defs>
<clipPath id="clip0_13_4025">
<rect width="37" height="36" fill="white"/>
</clipPath>
</defs>
</svg>
