<svg width="143" height="36" viewBox="0 0 143 36" fill="none" xmlns="http://www.w3.org/2000/svg">
<g clip-path="url(#clip0_13_4028)">
<path fill-rule="evenodd" clip-rule="evenodd" d="M12.686 0C10.5988 0 8.59723 0.806704 7.1214 2.24265L0 9.17153V12.3431C0 14.5839 0.989232 16.5998 2.56596 18C0.989232 19.4002 0 21.4161 0 23.6569V26.8285L7.1214 33.7574C8.59723 35.1933 10.5988 36 12.686 36C14.989 36 17.0609 35.0375 18.5 33.5034C19.9391 35.0375 22.011 36 24.314 36C26.4012 36 28.4028 35.1933 29.8786 33.7574L37 26.8285V23.6569C37 21.4161 36.0108 19.4002 34.4341 18C36.0108 16.5998 37 14.5839 37 12.3431V9.17153L29.8786 2.24265C28.4028 0.806704 26.4012 0 24.314 0C22.011 0 19.9391 0.962493 18.5 2.49661C17.0609 0.962493 14.989 0 12.686 0ZM23.8269 18C23.7382 17.9212 23.6511 17.8403 23.5659 17.7574L18.5 12.8284L13.4341 17.7574C13.3489 17.8403 13.2618 17.9212 13.1731 18C13.2618 18.0787 13.3489 18.1597 13.4341 18.2426L18.5 23.1716L23.5659 18.2426C23.6511 18.1597 23.7382 18.0787 23.8269 18ZM20.5555 26.8285V28.3432C20.5555 30.3628 22.2383 32 24.314 32C25.3108 32 26.2668 31.6147 26.9716 30.9289L32.8889 25.1716V23.6569C32.8889 21.6373 31.2062 20 29.1305 20C28.1337 20 27.1777 20.3853 26.4729 21.0711L20.5555 26.8285ZM16.4445 26.8285L10.5271 21.0711C9.8223 20.3853 8.86635 20 7.86955 20C5.79382 20 4.11111 21.6373 4.11111 23.6569V25.1716L10.0284 30.9289C10.7332 31.6147 11.6892 32 12.686 32C14.7617 32 16.4445 30.3628 16.4445 28.3432V26.8285ZM16.4445 7.65686V9.17153L10.5271 14.9289C9.8223 15.6147 8.86635 16 7.86955 16C5.79382 16 4.11111 14.3627 4.11111 12.3431V10.8284L10.0284 5.07107C10.7332 4.38528 11.6892 4 12.686 4C14.7617 4 16.4445 5.63723 16.4445 7.65686ZM26.4729 14.9289L20.5555 9.17153V7.65686C20.5555 5.63723 22.2383 4 24.314 4C25.3108 4 26.2668 4.38528 26.9716 5.07107L32.8889 10.8284V12.3431C32.8889 14.3627 31.2062 16 29.1305 16C28.1337 16 27.1777 15.6147 26.4729 14.9289Z" fill="#FF6358"/>
</g>
<path d="M61.9023 23.668V26H52.8438V23.668H61.9023ZM53.6758 8.9375V26H50.7344V8.9375H53.6758ZM60.7188 16.0625V18.3594H52.8438V16.0625H60.7188ZM61.8438 8.9375V11.2812H52.8438V8.9375H61.8438ZM68.9688 23.9844C69.4297 23.9844 69.8438 23.8945 70.2109 23.7148C70.5859 23.5273 70.8867 23.2695 71.1133 22.9414C71.3477 22.6133 71.4766 22.2344 71.5 21.8047H74.1602C74.1445 22.625 73.9023 23.3711 73.4336 24.043C72.9648 24.7148 72.3438 25.25 71.5703 25.6484C70.7969 26.0391 69.9414 26.2344 69.0039 26.2344C68.0352 26.2344 67.1914 26.0703 66.4727 25.7422C65.7539 25.4062 65.1562 24.9453 64.6797 24.3594C64.2031 23.7734 63.8438 23.0977 63.6016 22.332C63.3672 21.5664 63.25 20.7461 63.25 19.8711V19.4609C63.25 18.5859 63.3672 17.7656 63.6016 17C63.8438 16.2266 64.2031 15.5469 64.6797 14.9609C65.1562 14.375 65.7539 13.918 66.4727 13.5898C67.1914 13.2539 68.0312 13.0859 68.9922 13.0859C70.0078 13.0859 70.8984 13.2891 71.6641 13.6953C72.4297 14.0938 73.0312 14.6523 73.4688 15.3711C73.9141 16.082 74.1445 16.9102 74.1602 17.8555H71.5C71.4766 17.3867 71.3594 16.9648 71.1484 16.5898C70.9453 16.207 70.6562 15.9023 70.2812 15.6758C69.9141 15.4492 69.4727 15.3359 68.957 15.3359C68.3867 15.3359 67.9141 15.4531 67.5391 15.6875C67.1641 15.9141 66.8711 16.2266 66.6602 16.625C66.4492 17.0156 66.2969 17.457 66.2031 17.9492C66.1172 18.4336 66.0742 18.9375 66.0742 19.4609V19.8711C66.0742 20.3945 66.1172 20.9023 66.2031 21.3945C66.2891 21.8867 66.4375 22.3281 66.6484 22.7188C66.8672 23.1016 67.1641 23.4102 67.5391 23.6445C67.9141 23.8711 68.3906 23.9844 68.9688 23.9844ZM79.1172 8V26H76.3047V8H79.1172ZM78.625 19.1914L77.7109 19.1797C77.7188 18.3047 77.8398 17.4961 78.0742 16.7539C78.3164 16.0117 78.6523 15.3672 79.082 14.8203C79.5195 14.2656 80.043 13.8398 80.6523 13.543C81.2617 13.2383 81.9375 13.0859 82.6797 13.0859C83.3047 13.0859 83.8672 13.1719 84.3672 13.3438C84.875 13.5156 85.3125 13.793 85.6797 14.1758C86.0469 14.5508 86.3242 15.043 86.5117 15.6523C86.707 16.2539 86.8047 16.9883 86.8047 17.8555V26H83.9688V17.832C83.9688 17.2227 83.8789 16.7383 83.6992 16.3789C83.5273 16.0195 83.2734 15.7617 82.9375 15.6055C82.6016 15.4414 82.1914 15.3594 81.707 15.3594C81.1992 15.3594 80.75 15.4609 80.3594 15.6641C79.9766 15.8672 79.6562 16.1445 79.3984 16.4961C79.1406 16.8477 78.9453 17.2539 78.8125 17.7148C78.6875 18.1758 78.625 18.668 78.625 19.1914ZM89.125 19.8008V19.5312C89.125 18.6172 89.2578 17.7695 89.5234 16.9883C89.7891 16.1992 90.1719 15.5156 90.6719 14.9375C91.1797 14.3516 91.7969 13.8984 92.5234 13.5781C93.2578 13.25 94.0859 13.0859 95.0078 13.0859C95.9375 13.0859 96.7656 13.25 97.4922 13.5781C98.2266 13.8984 98.8477 14.3516 99.3555 14.9375C99.8633 15.5156 100.25 16.1992 100.516 16.9883C100.781 17.7695 100.914 18.6172 100.914 19.5312V19.8008C100.914 20.7148 100.781 21.5625 100.516 22.3438C100.25 23.125 99.8633 23.8086 99.3555 24.3945C98.8477 24.9727 98.2305 25.4258 97.5039 25.7539C96.7773 26.0742 95.9531 26.2344 95.0312 26.2344C94.1016 26.2344 93.2695 26.0742 92.5352 25.7539C91.8086 25.4258 91.1914 24.9727 90.6836 24.3945C90.1758 23.8086 89.7891 23.125 89.5234 22.3438C89.2578 21.5625 89.125 20.7148 89.125 19.8008ZM91.9492 19.5312V19.8008C91.9492 20.3711 92.0078 20.9102 92.125 21.418C92.2422 21.9258 92.4258 22.3711 92.6758 22.7539C92.9258 23.1367 93.2461 23.4375 93.6367 23.6562C94.0273 23.875 94.4922 23.9844 95.0312 23.9844C95.5547 23.9844 96.0078 23.875 96.3906 23.6562C96.7812 23.4375 97.1016 23.1367 97.3516 22.7539C97.6016 22.3711 97.7852 21.9258 97.9023 21.418C98.0273 20.9102 98.0898 20.3711 98.0898 19.8008V19.5312C98.0898 18.9688 98.0273 18.4375 97.9023 17.9375C97.7852 17.4297 97.5977 16.9805 97.3398 16.5898C97.0898 16.1992 96.7695 15.8945 96.3789 15.6758C95.9961 15.4492 95.5391 15.3359 95.0078 15.3359C94.4766 15.3359 94.0156 15.4492 93.625 15.6758C93.2422 15.8945 92.9258 16.1992 92.6758 16.5898C92.4258 16.9805 92.2422 17.4297 92.125 17.9375C92.0078 18.4375 91.9492 18.9688 91.9492 19.5312Z" fill="black"/>
<path d="M108.52 26H104.875L104.898 23.668H108.52C109.574 23.668 110.457 23.4375 111.168 22.9766C111.887 22.5156 112.426 21.8555 112.785 20.9961C113.152 20.1367 113.336 19.1133 113.336 17.9258V17C113.336 16.0781 113.23 15.2617 113.02 14.5508C112.816 13.8398 112.512 13.2422 112.105 12.7578C111.707 12.2734 111.215 11.9062 110.629 11.6562C110.051 11.4062 109.383 11.2812 108.625 11.2812H104.805V8.9375H108.625C109.758 8.9375 110.793 9.12891 111.73 9.51172C112.668 9.88672 113.477 10.4297 114.156 11.1406C114.844 11.8516 115.371 12.7031 115.738 13.6953C116.105 14.6875 116.289 15.7969 116.289 17.0234V17.9258C116.289 19.1523 116.105 20.2617 115.738 21.2539C115.371 22.2461 114.844 23.0977 114.156 23.8086C113.469 24.5117 112.648 25.0547 111.695 25.4375C110.75 25.8125 109.691 26 108.52 26ZM106.504 8.9375V26H103.562V8.9375H106.504ZM126.109 23.457V17.4102C126.109 16.957 126.027 16.5664 125.863 16.2383C125.699 15.9102 125.449 15.6562 125.113 15.4766C124.785 15.2969 124.371 15.207 123.871 15.207C123.41 15.207 123.012 15.2852 122.676 15.4414C122.34 15.5977 122.078 15.8086 121.891 16.0742C121.703 16.3398 121.609 16.6406 121.609 16.9766H118.797C118.797 16.4766 118.918 15.9922 119.16 15.5234C119.402 15.0547 119.754 14.6367 120.215 14.2695C120.676 13.9023 121.227 13.6133 121.867 13.4023C122.508 13.1914 123.227 13.0859 124.023 13.0859C124.977 13.0859 125.82 13.2461 126.555 13.5664C127.297 13.8867 127.879 14.3711 128.301 15.0195C128.73 15.6602 128.945 16.4648 128.945 17.4336V23.0703C128.945 23.6484 128.984 24.168 129.062 24.6289C129.148 25.082 129.27 25.4766 129.426 25.8125V26H126.531C126.398 25.6953 126.293 25.3086 126.215 24.8398C126.145 24.3633 126.109 23.9023 126.109 23.457ZM126.52 18.2891L126.543 20.0352H124.516C123.992 20.0352 123.531 20.0859 123.133 20.1875C122.734 20.2812 122.402 20.4219 122.137 20.6094C121.871 20.7969 121.672 21.0234 121.539 21.2891C121.406 21.5547 121.34 21.8555 121.34 22.1914C121.34 22.5273 121.418 22.8359 121.574 23.1172C121.73 23.3906 121.957 23.6055 122.254 23.7617C122.559 23.918 122.926 23.9961 123.355 23.9961C123.934 23.9961 124.438 23.8789 124.867 23.6445C125.305 23.4023 125.648 23.1094 125.898 22.7656C126.148 22.4141 126.281 22.082 126.297 21.7695L127.211 23.0234C127.117 23.3438 126.957 23.6875 126.73 24.0547C126.504 24.4219 126.207 24.7734 125.84 25.1094C125.48 25.4375 125.047 25.707 124.539 25.918C124.039 26.1289 123.461 26.2344 122.805 26.2344C121.977 26.2344 121.238 26.0703 120.59 25.7422C119.941 25.4062 119.434 24.957 119.066 24.3945C118.699 23.8242 118.516 23.1797 118.516 22.4609C118.516 21.7891 118.641 21.1953 118.891 20.6797C119.148 20.1562 119.523 19.7188 120.016 19.3672C120.516 19.0156 121.125 18.75 121.844 18.5703C122.562 18.3828 123.383 18.2891 124.305 18.2891H126.52ZM135.391 24.6172L138.836 13.3203H141.859L136.773 27.9336C136.656 28.2461 136.504 28.5859 136.316 28.9531C136.129 29.3203 135.883 29.668 135.578 29.9961C135.281 30.332 134.91 30.6016 134.465 30.8047C134.02 31.0156 133.48 31.1211 132.848 31.1211C132.598 31.1211 132.355 31.0977 132.121 31.0508C131.895 31.0117 131.68 30.9688 131.477 30.9219L131.465 28.7656C131.543 28.7734 131.637 28.7812 131.746 28.7891C131.863 28.7969 131.957 28.8008 132.027 28.8008C132.496 28.8008 132.887 28.7422 133.199 28.625C133.512 28.5156 133.766 28.3359 133.961 28.0859C134.164 27.8359 134.336 27.5 134.477 27.0781L135.391 24.6172ZM133.445 13.3203L136.457 22.8125L136.961 25.7891L135.004 26.293L130.398 13.3203H133.445Z" fill="#FF6358"/>
<defs>
<clipPath id="clip0_13_4028">
<rect width="37" height="36" fill="white"/>
</clipPath>
</defs>
</svg>
